<?xml version="1.0" encoding="UTF-8"?>
<svg id="Capa_1" data-name="Capa 1" xmlns="http://www.w3.org/2000/svg" viewBox="0 0 595.28 204.48">
  <defs>
    <style>
      .cls-1 {
        fill: #1d1d1b;
        opacity: .4;
      }

      .cls-2 {
        font-size: 49px;
      }

      .cls-2, .cls-3 {
        font-family: Nunito-Bold, Nunito;
        font-weight: 700;
      }

      .cls-2, .cls-4 {
        fill: #ee721d;
      }

      .cls-5 {
        fill: none;
        stroke: #fff;
        stroke-miterlimit: 10;
      }

      .cls-6 {
        letter-spacing: 0em;
      }

      .cls-7 {
        letter-spacing: -.1em;
      }

      .cls-8, .cls-3 {
        fill: #173357;
      }

      .cls-3 {
        font-size: 150px;
      }
    </style>
  </defs>
  <text class="cls-3" transform="translate(162.34 130.56)"><tspan x="0" y="0">O</tspan><tspan class="cls-7" x="117.75" y="0">L</tspan><tspan x="186.6" y="0">VE</tspan></text>
  <text class="cls-2" transform="translate(390.42 179.72)"><tspan x="0" y="0">see</tspan><tspan class="cls-6" x="77.03" y="0">k</tspan><tspan x="102.8" y="0">er</tspan></text>
  <g>
    <path class="cls-8" d="M161.47,122.37c-1.75-8.37-8.13-26.75-36.75-35.11,0,0-25.92-4.95-29.43-16.11-3.51-11.16,6.66-16.65,6.66-16.65-1.05.18,16.07-9.45,23.4,6.21,1.53,3.27-.18,6.48,5.85,6.12h24.93s4.95.39,4.35-5.01-1.08-20.16-20.88-32.28c-19.8-12.12-47.64-3.84-47.64-3.84,0,0-23.52,5.4-30.84,31.92s9.6,42.48,13.32,45.48,8.68,10.29,30.93,13.77c8.81,1.38,14,4.01,17.05,6.5,0,0,1.06,1.36,2.93,1.41l8.94-.14s6.05.77,1.56,7.63c-3.87,5.91-4.47,15.59,9.1,14.89,13.1-.68,11.29-6.81,7.62-15.87-3.19-7.86,3.81-6.88,5.02-7.12l2.55-.09s1.7.14,1.32-1.71Z"/>
    <path class="cls-4" d="M161.92,126.47c1.43,37.77-23.64,46.92-23.64,46.92,0,0-19.68,11.16-49.56,3.36s-31.05-30.99-32.22-36.84c-1.17-5.85,2.8-5.67,2.8-5.67h24.29c5.85,0,5.76,4.77,5.76,4.77,2.7,11.79,17.1,12.24,17.1,12.24,27.63.72,20.25-22.05,20.25-22.05,0,0-.18-1.22-1.34-2.93,0,0-.82-1.32.74-1.49l8.18-.13s6.05.77,1.56,7.63c-3.87,5.91-4.47,15.59,9.1,14.89,13.1-.68,11.29-6.81,7.62-15.87-3.19-7.86,3.81-6.88,5.02-7.12l2.46-.08s1.77-.42,1.88,2.39Z"/>
    <path class="cls-5" d="M122.38,124.5h12.06s6.03.86,1.44,7.65c-3.96,5.85-4.72,15.52,8.86,15.03,13.11-.47,11.4-6.63,7.88-15.75-3.06-7.91,3.92-6.82,5.13-7.04l4.59-.09"/>
  </g>
  <rect class="cls-1" x="170.44" y="135.29" width="368.55" height="6.98" rx="3.49" ry="3.49"/>
</svg>